<?xml version="1.0" encoding="utf-8"?>
<!-- Generator: Adobe Illustrator 15.0.0, SVG Export Plug-In . SVG Version: 6.00 Build 0)  -->
<!DOCTYPE svg PUBLIC "-//W3C//DTD SVG 1.1//EN" "http://www.w3.org/Graphics/SVG/1.1/DTD/svg11.dtd">
<svg version="1.1" id="Layer_1" xmlns="http://www.w3.org/2000/svg" xmlns:xlink="http://www.w3.org/1999/xlink" x="0px" y="0px"
	 width="20px" height="20px" viewBox="0 0 20 20" enable-background="new 0 0 20 20" xml:space="preserve">
<path fill="#231F20" d="M19.471,8.396H0.559c-0.219,0-0.399,0.161-0.431,0.371h0c-0.052,0.422-0.08,0.853-0.08,1.29
	c0,0.442,0.028,0.877,0.082,1.306l0.001-0.001c0.038,0.201,0.214,0.354,0.426,0.356h18.917c0.221-0.003,0.401-0.166,0.431-0.378l0,0
	c0.052-0.42,0.079-0.849,0.079-1.284c0-0.432-0.027-0.856-0.078-1.274l0,0C19.88,8.565,19.695,8.396,19.471,8.396z"/>
<path fill="#231F20" d="M8.353,0.602v18.912c0,0.219,0.161,0.399,0.371,0.431v0.001c0.422,0.052,0.853,0.08,1.29,0.08
	c0.442,0,0.877-0.028,1.306-0.082l-0.001-0.001c0.201-0.038,0.354-0.214,0.356-0.427V0.6c-0.003-0.221-0.166-0.401-0.378-0.431l0,0
	c-0.42-0.052-0.849-0.079-1.284-0.079c-0.432,0-0.856,0.027-1.274,0.078l0,0C8.522,0.192,8.353,0.377,8.353,0.602z"/>
</svg>
