<?xml version="1.0" encoding="utf-8"?>
<!-- Generator: Adobe Illustrator 15.0.0, SVG Export Plug-In . SVG Version: 6.00 Build 0)  -->
<!DOCTYPE svg PUBLIC "-//W3C//DTD SVG 1.1//EN" "http://www.w3.org/Graphics/SVG/1.1/DTD/svg11.dtd">
<svg version="1.1" id="Layer_1" xmlns="http://www.w3.org/2000/svg" xmlns:xlink="http://www.w3.org/1999/xlink" x="0px" y="0px"
	 width="680.049px" height="235px" viewBox="0 -115.538 680.049 235" enable-background="new 0 -115.538 680.049 235"
	 xml:space="preserve">
<path opacity="0.18" fill="#231F20" d="M264.531,78.708c-0.058-0.51-0.313-0.957-0.684-1.271h0L242.15,56.764
	c-0.356-0.383-0.858-0.629-1.422-0.629h-29.752v-93.962c-0.003-0.62-0.295-1.168-0.746-1.523l-21.583-20.564
	c-0.304-0.359-0.733-0.608-1.22-0.674v-0.004c-1.869-0.226-3.772-0.347-5.705-0.348H170.43c-1.914,0.001-3.797,0.12-5.652,0.346
	v0.002c-0.977,0.109-1.736,0.936-1.736,1.942v138.59c0,0.527,0.212,1,0.552,1.351l-0.01,0.001l21.868,20.835l0-0.004
	c0.292,0.304,0.679,0.519,1.118,0.584c1.869,0.235,3.774,0.359,5.703,0.363h11.331c0.421,0,0.845-0.013,1.266-0.025h57.733
	c0.985,0,1.798-0.737,1.924-1.683h0.004c0.226-1.871,0.344-3.773,0.35-5.706V84.364c-0.006-1.917-0.119-3.799-0.347-5.655H264.531z
	 M139.377-27.332l0.011-0.046L117.52-48.212l-0.009,0.04c-9.508-8.478-22.767-12.674-36.289-12.745c0-0.002-0.004-0.002-0.006-0.002
	H41.997c-0.436-0.015-0.877-0.022-1.317-0.022H29.39c-1.916,0.001-3.801,0.12-5.657,0.345v0.002
	c-0.973,0.11-1.731,0.937-1.731,1.943v138.59c0,0.527,0.212,1.001,0.552,1.352h-0.006l21.866,20.833
	c0.292,0.303,0.677,0.517,1.114,0.582c1.869,0.235,3.775,0.359,5.705,0.363h11.331c1.959-0.004,3.886-0.132,5.783-0.363
	l-0.001-0.009c0.9-0.173,1.583-0.956,1.591-1.912V51.671h37.001l0.004-0.002C134,51.546,153.379,30.395,153.379,5.796
	C153.379-8.751,147.877-19.752,139.377-27.332z M85.017,5.847H69.935v-20.942h36.263C105.746-0.765,94.434,5.847,85.017,5.847z
	 M496.851-39.372l-21.533-20.516c-0.304-0.373-0.737-0.633-1.236-0.701v-0.005c-1.877-0.226-3.78-0.347-5.706-0.348h-11.292
	c-1.92,0.001-3.805,0.12-5.653,0.346v0.002c-0.974,0.109-1.736,0.936-1.736,1.942v138.59c0,0.527,0.215,1,0.554,1.351l-0.012,0.001
	l21.868,20.835v-0.006c0.293,0.306,0.678,0.521,1.111,0.586c1.877,0.235,3.775,0.359,5.705,0.363h11.333
	c1.964-0.004,3.892-0.132,5.776-0.363v-0.009c0.903-0.173,1.587-0.956,1.597-1.912V-37.827
	C497.621-38.46,497.317-39.018,496.851-39.372z M679.463-39.213l0.022-0.002L657.619-60.05l-0.001,0.016
	c-0.284-0.268-0.644-0.457-1.051-0.517v-0.002c-1.866-0.234-3.768-0.357-5.706-0.36h-11.326c-1.952,0.003-3.882,0.129-5.785,0.366
	l0.011,0.005c-0.903,0.168-1.586,0.957-1.597,1.909V27.76L568.73-39.242c0,0-0.401-0.418-0.911-0.842L547.19-59.738l-0.323-0.342
	c0,0-1.482-1.556-2.386-1.702c-0.929-0.143-2.218-0.143-3.365-0.143c-0.754,0-2.55,0.062-3.401,0.161v0.005
	c-0.973,0.109-1.737,0.933-1.737,1.937v139.76c0,0.618,0.29,1.166,0.739,1.522l21.586,20.566c0.302,0.356,0.726,0.604,1.206,0.677
	c1.869,0.236,3.769,0.358,5.706,0.364h11.324c1.962-0.006,3.892-0.132,5.787-0.364v-0.009c0.893-0.173,1.584-0.956,1.584-1.912
	V14.388l63.436,67.011c0,0,0.535,0.549,1.144,1.023l-0.026,0.002l20.315,19.355l0.432,0.456c0,0,0.461,0.473,1.014,0.921
	l0.107,0.103l0.001-0.017c0.438,0.345,0.917,0.656,1.269,0.692c0.834,0.084,1.814,0.145,3.359,0.145c0.753,0,2.55-0.061,3.4-0.165
	c0.982-0.109,1.736-0.935,1.736-1.941V-37.786C680.096-38.353,679.85-38.857,679.463-39.213z M369.167-39.242
	c-0.124-0.339-0.395-0.832-0.83-1.25l0.019-0.022l-21.867-20.835l0.003,0.036c-0.338-0.329-0.774-0.616-1.336-0.74
	c-0.018-0.006-0.035-0.014-0.062-0.018c-1.251-0.29-2.684-0.335-4.455-0.017v-0.004c-0.029,0.004-0.051,0.012-0.078,0.016
	c-0.01,0-0.018,0.002-0.025,0.004c-1.32,0.255-2.004,1.381-2.231,1.993l-63.382,139.4c-0.398,0.85-0.181,1.514,0.247,1.956
	l-0.008,0.014l21.868,20.835l0.005-0.01c0.313,0.322,0.735,0.529,1.129,0.589c1.875,0.24,3.787,0.358,5.717,0.364h12.247
	c1.979-0.006,4.775-0.25,4.775-0.25c1.474-0.188,2.279-1.354,2.607-2.034l9.979-22.356h49.795l0.678,1.519
	c0.183,0.382,0.522,0.913,1.043,1.342l-0.021,0.002l21.656,20.634c0.033,0.032,0.066,0.065,0.103,0.098l0.108,0.104l0.001-0.014
	c0.409,0.342,0.928,0.623,1.587,0.707c0,0,2.787,0.244,4.767,0.25h12.247c1.937-0.006,3.84-0.124,5.715-0.364
	c0.938-0.141,2.078-1.075,1.387-2.547L369.167-39.242z M353.542,33.497l4.844-10.852l4.844,10.852H353.542z"/>
<g opacity="0.24">
	<path fill="#231F20" d="M474.082-60.588v-0.005c-1.877-0.226-3.78-0.347-5.706-0.348h-11.292c-1.92,0.001-3.805,0.12-5.653,0.346
		v0.002c-0.974,0.109-1.736,0.936-1.736,1.942v138.59c0,0.527,0.215,1,0.554,1.351l-0.012,0.001l11.117,10.592
		c1.876,0.236,3.775,0.36,5.704,0.364h11.332c1.965-0.004,3.893-0.132,5.777-0.364v-0.008c0.903-0.173,1.586-0.957,1.597-1.912
		V-48.649c-0.002-0.147-0.054-0.662-0.144-1.423l-10.302-9.815C475.014-60.26,474.581-60.521,474.082-60.588z"/>
	<path fill="#231F20" d="M657.619-60.05l-0.001,0.016c-0.284-0.268-0.644-0.457-1.051-0.517v-0.002
		c-1.866-0.234-3.768-0.357-5.706-0.36h-11.326c-1.952,0.003-3.882,0.129-5.785,0.366l0.011,0.005
		c-0.903,0.168-1.586,0.957-1.597,1.909V27.76l10,11.18l-20.02-20.054l-65.277-68.95c0,0-2.811-2.915-5.166-5.375l-4.511-4.298
		l-0.323-0.342c0,0-1.482-1.556-2.386-1.702c-0.929-0.143-2.218-0.143-3.365-0.143c-0.754,0-2.55,0.062-3.401,0.161v0.005
		c-0.973,0.109-1.737,0.933-1.737,1.937v139.76c0,0.618,0.29,1.166,0.739,1.522l10.938,10.421c1.865,0.236,3.762,0.358,5.697,0.364
		h11.324c1.962-0.006,3.892-0.132,5.787-0.365v-0.008c0.893-0.173,1.584-0.957,1.584-1.912V2.406l20.021,20.05l60.208,63.602
		l7.381,7.032c0.025,0.005,0.056,0.02,0.08,0.022c0.834,0.083,1.813,0.145,3.359,0.145c0.752,0,2.55-0.062,3.399-0.166
		c0.982-0.108,1.737-0.935,1.737-1.94V-48.608c0-0.154,0-0.634,0-1.329L657.619-60.05z"/>
	<path fill="#231F20" d="M240.728,56.135h-17.363l-24.253,10.014V-48.649c-0.001-0.126-0.003-0.593-0.012-1.306l-10.453-9.959
		c-0.304-0.359-0.733-0.608-1.22-0.674v-0.004c-1.869-0.226-3.772-0.347-5.705-0.348H170.43c-1.914,0.001-3.797,0.12-5.652,0.346
		v0.002c-0.977,0.109-1.736,0.936-1.736,1.942v138.59c0,0.527,0.212,1,0.552,1.351l-0.01,0.001l11.116,10.591
		c0.001,0,0.006,0.001,0.007,0.001c1.869,0.236,3.774,0.36,5.703,0.364h11.331c0.421,0,0.845-0.013,1.266-0.025h57.733
		c0.986,0,1.798-0.737,1.925-1.683h0.003c0.226-1.872,0.344-3.774,0.35-5.706V73.541c-0.005-1.916-0.119-3.798-0.347-5.654h-0.003
		c-0.026-0.228-0.186-0.789-0.422-1.503l-10.095-9.619C241.793,56.381,241.292,56.135,240.728,56.135z"/>
	<path fill="#231F20" d="M141.516-5.026c0-10.518-3.335-20.308-8.741-28.651L117.52-48.212l-0.009,0.04
		c-8.037-7.166-18.756-11.261-30.046-12.403c-0.055,0-0.109-0.005-0.164-0.006c0,0-0.011-0.01-0.013-0.012
		c-2.009-0.198-4.034-0.313-6.067-0.324c0-0.002-0.004-0.002-0.006-0.002H41.997c-0.436-0.015-0.877-0.022-1.317-0.022H29.39
		c-1.916,0.001-3.801,0.12-5.657,0.345v0.002c-0.973,0.11-1.731,0.937-1.731,1.943v138.59c0,0.527,0.212,1.001,0.552,1.352h-0.006
		l11.117,10.592c1.869,0.236,3.775,0.36,5.704,0.364H50.7c1.959-0.004,3.885-0.132,5.782-0.364l-0.001-0.008
		c0.9-0.173,1.583-0.957,1.591-1.912V40.849h37.001l0.004-0.002C122.137,40.724,141.516,19.572,141.516-5.026z M95.017,15.862
		H58.071v-41.78h36.946c13.325,0,21.203,6.78,21.203,19.946C116.221,8.981,104.627,15.862,95.017,15.862z"/>
	<path fill="#231F20" d="M357.303-50.064c-0.06-0.163-0.346-0.825-0.751-1.696l-10.063-9.588l0.003,0.036
		c-0.338-0.329-0.774-0.616-1.336-0.74c-0.018-0.006-0.035-0.014-0.062-0.018c-1.251-0.29-2.684-0.335-4.455-0.017v-0.004
		c-0.029,0.004-0.051,0.012-0.078,0.016c-0.01,0-0.018,0.002-0.025,0.004c-1.32,0.255-2.004,1.381-2.231,1.993l-63.382,139.4
		c-0.398,0.85-0.181,1.514,0.247,1.956l-0.008,0.014l11.107,10.582c0.009,0.002,0.025,0.008,0.033,0.009
		c1.874,0.241,3.787,0.359,5.717,0.365h12.248c1.977-0.006,4.774-0.25,4.774-0.25c1.474-0.189,2.28-1.354,2.607-2.034l9.979-22.357
		h62.361l-0.234,11.872l0.21,0.47c0.183,0.382,0.522,0.913,1.043,1.342l-0.021,0.002l11.396,10.858
		c1.634,0.043,3.814,0.094,4.962,0.098h12.246c1.938-0.006,3.84-0.124,5.715-0.365c0.938-0.14,2.078-1.074,1.387-2.547
		L357.303-50.064z M332.377,43.511L352.803-2.25l20.427,45.761H332.377z"/>
</g>
<g>
	<path fill="#FFFFFF" d="M474.082-60.573v-0.005c-1.877-0.226-3.78-0.347-5.706-0.348c-0.019,0-5.639,0-5.645,0
		c-0.011,0-5.637,0-5.647,0c-1.92,0.001-3.805,0.12-5.653,0.346v0.002c-0.974,0.109-1.736,0.936-1.736,1.942V79.953
		c0,0.982,0.729,1.79,1.657,1.93l0,0c1.877,0.236,3.776,0.36,5.706,0.364c0.024,0,5.653,0,5.671,0c0.019,0,5.646,0,5.661,0
		c1.965-0.004,3.893-0.132,5.777-0.364v-0.008c0.903-0.173,1.586-0.957,1.597-1.912V-58.649
		C475.752-59.635,475.027-60.445,474.082-60.573z"/>
	<path fill="#FFFFFF" d="M242.67,57.886h-0.003c-0.111-0.977-0.938-1.737-1.939-1.737h-51.616V-58.649
		c-0.006-0.987-0.74-1.795-1.685-1.924v-0.004c-1.869-0.226-3.772-0.347-5.705-0.348c-0.016,0-5.633,0-5.645,0
		c-0.017,0-5.632,0-5.647,0c-1.914,0.001-3.797,0.12-5.652,0.346v0.002c-0.977,0.109-1.736,0.936-1.736,1.942V79.953
		c0,0.982,0.721,1.79,1.664,1.93l0,0c1.869,0.236,3.774,0.36,5.703,0.364c0.022,0,5.646,0,5.668,0c0.02,0,5.645,0,5.663,0
		c0.421,0,0.845-0.013,1.266-0.025h57.733c0.986,0,1.798-0.737,1.925-1.683h0.003c0.226-1.872,0.344-3.774,0.35-5.706
		c0-0.014,0-4.241,0-5.645c0-0.905,0-5.633,0-5.647C243.011,61.625,242.898,59.743,242.67,57.886z"/>
	<path fill="#FFFFFF" d="M131.516-15.026c0-30.821-24.682-45.74-50.294-45.875c0-0.002-0.004-0.002-0.006-0.002H41.997
		c-0.436-0.015-0.877-0.022-1.317-0.022c-0.016,0-5.633,0-5.645,0c-0.013,0-5.63,0-5.645,0c-1.916,0.001-3.801,0.12-5.657,0.345
		v0.002c-0.973,0.11-1.731,0.937-1.731,1.943V79.953c0,0.982,0.72,1.79,1.662,1.93l0,0c1.869,0.236,3.775,0.36,5.705,0.364
		c0.022,0,5.645,0,5.667,0c0.022,0,5.645,0,5.665,0c1.959-0.004,3.885-0.132,5.782-0.364l-0.001-0.008
		c0.9-0.173,1.583-0.957,1.591-1.912V30.849h37.001l0.004-0.002C112.137,30.724,131.516,9.572,131.516-15.026z M85.017,5.862H48.071
		v-41.78h36.946c13.325,0,21.203,6.78,21.203,19.946C106.221-1.019,94.627,5.862,85.017,5.862z"/>
	<path fill="#FFFFFF" d="M656.567-60.536v-0.002c-1.866-0.234-3.768-0.357-5.706-0.359c-0.018,0-5.637,0-5.663,0
		c-0.018,0-5.645,0-5.663,0c-1.952,0.002-3.882,0.129-5.785,0.365l0.011,0.006c-0.903,0.168-1.586,0.957-1.597,1.908V28.94
		l-20.02-20.054l-65.277-68.95c0,0-1.482-1.556-2.386-1.702c-0.929-0.143-2.218-0.143-3.365-0.143c-0.754,0-2.55,0.062-3.401,0.161
		v0.005c-0.973,0.109-1.737,0.933-1.737,1.937V79.953c0,0.98,0.729,1.789,1.668,1.929l0,0c1.868,0.237,3.768,0.359,5.706,0.365
		c0.018,0,5.645,0,5.663,0c0.016,0,5.645,0,5.661,0c1.962-0.006,3.892-0.132,5.787-0.365v-0.008
		c0.893-0.173,1.584-0.957,1.584-1.912V-7.594l20.021,20.05l65.277,68.956c0,0,1.558,1.613,2.392,1.7
		c0.834,0.083,1.813,0.145,3.359,0.145c0.752,0,2.55-0.062,3.399-0.166l0,0c0.982-0.108,1.737-0.935,1.737-1.94V-58.608
		C658.233-59.587,657.515-60.396,656.567-60.536z"/>
	<path fill="#FFFFFF" d="M410.688,79.334L347.303-60.064c-0.219-0.599-0.877-1.692-2.147-1.974
		c-0.018-0.006-0.035-0.014-0.062-0.018c-1.251-0.289-2.684-0.335-4.455-0.017v-0.004c-0.029,0.004-0.051,0.012-0.078,0.016
		c-0.01,0-0.018,0.002-0.025,0.004l0,0c-1.32,0.255-2.004,1.382-2.231,1.993L274.921,79.334c-0.689,1.473,0.442,2.408,1.378,2.547
		l0,0c1.874,0.241,3.787,0.359,5.717,0.365c0.02,0,6.102,0,6.124,0c0.015,0,6.109,0,6.124,0c1.978-0.006,4.773-0.25,4.773-0.25
		c1.474-0.189,2.281-1.354,2.608-2.034l9.978-22.357h62.361l9.976,22.357c0.324,0.68,1.131,1.845,2.613,2.034
		c0,0,2.787,0.244,4.767,0.25c0.02,0,6.11,0,6.13,0c0.008,0,6.099,0,6.116,0c1.938-0.006,3.84-0.124,5.715-0.365l0,0
		C410.239,81.742,411.379,80.807,410.688,79.334z M322.377,33.511l20.426-45.761l20.427,45.761H322.377z"/>
</g>
<g opacity="0.8">
	<path fill="#FFFFFF" d="M322.786-88.26c-4.534,7.927-12.462,7.47-13.3,3.049c-5.907,6.327-11.51,1.982-8.042-4.04l10.137-17.684
		c-5.106,2.554-13.911,3.202-13.911,8.156c0,1.944,2.097,2.782,2.097,2.782l-1.487,2.554c-1.944-0.763-4.078-2.668-4.078-5.412
		c0-8.118,12.386-7.394,19.894-12.424l2.019,3.469l-11.279,19.55c-2.668,4.611,0.686,6.593,5.641-1.257l11.852-20.542h3.965
		l-13.34,23.21c-1.905,3.353,2.478,4.268,5.793-1.487l10.519-18.217c4.649-8.003,11.014-5.069,11.853-1.868l-2.63,1.448
		c-1.144-2.592-3.734-2.172-5.945,1.639L322.786-88.26z"/>
	<path fill="#FFFFFF" d="M332.729-90.09l-0.383,0.687c-1.828,3.201-0.38,4.726,2.059,4.726c2.782,0,6.44-2.63,9.3-5.945l0.267-0.305
		c0.533,0.228,1.22,0.838,1.485,1.372c-3.276,3.812-7.736,7.318-12.232,7.318c-4.688,0-6.821-3.888-4.346-8.118l4.154-7.126
		c1.678-2.896,4.23-4.574,7.433-4.574c3.239,0,5.296,2.744,3.162,6.403l-0.572,0.991C340.083-89.518,335.282-89.022,332.729-90.09z
		 M333.872-92.033c1.486,0.534,4.039,0.61,5.946-2.629l0.57-0.991c2.363-4.116-1.677-4.764-3.964-0.838L333.872-92.033z"/>
	<path fill="#FFFFFF" d="M347.856-104.533h0.229c0.913,0,2.059-0.572,2.516-1.296c-1.144-0.19-1.906-0.914-1.906-1.905
		c0-1.448,1.066-2.096,2.02-2.096c1.105,0,2.249,0.762,2.249,2.134c0,2.744-2.706,4.688-4.916,4.688h-0.268L347.856-104.533z"/>
	<path fill="#FFFFFF" d="M362.184-95.158c0.457-0.801,0.267-1.601-0.229-2.249l-0.534-0.686c-4.383,5.907-9.87,13.224-11.814,15.473
		c-0.571-0.381-1.144-0.877-1.485-1.372c2.857-3.354,8.842-11.586,11.929-15.854l-0.306-0.419c-1.41-1.829-1.22-4.078,1.029-6.098
		l2.059,2.248c-0.801,0.763-0.801,1.562-0.229,2.287l2.211,2.668c1.296,1.562,1.943,2.972,0.571,5.374l-3.964,6.937
		c-0.915,1.562-0.419,2.172,0.457,2.172c1.754,0,4.536-2.63,7.395-5.945l0.267-0.305c0.533,0.228,1.22,0.838,1.486,1.372
		c-3.278,3.812-7.051,7.318-10.329,7.318c-3.201,0-4.383-2.707-2.705-5.641L362.184-95.158z"/>
	<path fill="#FFFFFF" d="M373.042-90.09l-0.381,0.687c-1.829,3.201-0.381,4.726,2.059,4.726c2.781,0,6.439-2.63,9.299-5.945
		l0.267-0.305c0.532,0.228,1.22,0.838,1.485,1.372c-3.277,3.812-7.736,7.318-12.233,7.318c-4.688,0-6.821-3.888-4.346-8.118
		l4.155-7.126c1.678-2.896,4.23-4.574,7.432-4.574c3.24,0,5.298,2.744,3.164,6.403l-0.572,0.991
		C380.397-89.518,375.595-89.022,373.042-90.09z M374.186-92.033c1.486,0.534,4.039,0.61,5.945-2.629l0.571-0.991
		c2.363-4.116-1.677-4.764-3.964-0.838L374.186-92.033z"/>
</g>
<path opacity="0.3" fill="#FFFFFF" d="M279.716-88.822c0,0.062-0.05,0.112-0.111,0.112H20.21c-0.061,0-0.111-0.05-0.111-0.112v-3.51
	c0-0.062,0.05-0.111,0.111-0.111h259.395c0.061,0,0.111,0.05,0.111,0.111V-88.822z"/>
<path opacity="0.3" fill="#FFFFFF" d="M665.096-88.822c0,0.062-0.049,0.112-0.11,0.112H400.591c-0.062,0-0.11-0.05-0.11-0.112v-3.51
	c0-0.062,0.049-0.111,0.11-0.111h264.395c0.062,0,0.11,0.05,0.11,0.111V-88.822z"/>
<path opacity="0.3" fill="#FFFFFF" d="M659.986,115.729H20.21c-0.061,0-0.111,0.05-0.111,0.111v3.511
	c0,0.062,0.05,0.111,0.111,0.111h639.775c0.062,0,0.11-0.05,0.11-0.111v-3.511C660.096,115.779,660.047,115.729,659.986,115.729z"/>
</svg>
